<?xml version="1.0" standalone="no"?>
<!DOCTYPE svg PUBLIC "-//W3C//DTD SVG 20010904//EN"
 "http://www.w3.org/TR/2001/REC-SVG-20010904/DTD/svg10.dtd">
<svg version="1.0" xmlns="http://www.w3.org/2000/svg"
 width="469.000000pt" height="390.000000pt" viewBox="0 0 469.000000 390.000000"
 preserveAspectRatio="xMidYMid meet">

<g transform="translate(0.000000,390.000000) scale(0.100000,-0.100000)"
fill="#c0c0c0" stroke="none">
<path d="M2415 3742 c-74 -8 -237 -57 -312 -94 -45 -22 -89 -38 -97 -35 -9 4
-13 1 -11 -6 4 -12 -119 -115 -152 -128 -20 -8 -63 -54 -63 -68 0 -5 -6 -11
-14 -14 -9 -4 -15 -38 -19 -129 -5 -125 -11 -158 -29 -158 -6 0 -7 8 -3 18 14
33 28 168 21 204 l-7 37 -40 -37 c-57 -52 -64 -68 -44 -98 9 -14 20 -22 25
-19 6 4 10 1 10 -4 0 -20 -28 -11 -49 15 -23 29 -61 26 -61 -6 0 -11 -8 -20
-22 -22 -12 -2 -23 -9 -26 -16 -2 -7 2 -10 11 -6 8 3 17 -2 20 -10 5 -12 2
-13 -19 -6 -32 12 -37 12 -29 0 3 -6 -1 -7 -10 -4 -24 10 -43 -14 -50 -61 -6
-36 -10 -42 -30 -42 -24 0 -25 16 -2 45 5 7 -22 -4 -61 -25 -38 -21 -68 -42
-65 -47 4 -5 1 -6 -5 -2 -14 8 -290 -47 -326 -66 l-29 -15 89 -42 c112 -52
117 -55 122 -69 3 -9 -21 -12 -91 -10 -52 2 -93 6 -91 9 2 4 -13 9 -34 12 -20
3 -82 13 -136 21 -130 21 -224 20 -317 -3 -140 -34 -189 -67 -189 -126 0 -24
31 -46 59 -42 14 2 20 2 13 0 -23 -8 -3 -20 26 -15 24 3 29 9 29 29 0 21 -3
24 -26 20 -14 -2 -35 -7 -46 -11 l-20 -8 20 17 c11 9 20 21 20 26 0 14 101 65
143 73 28 5 35 2 39 -13 2 -10 16 -24 29 -30 30 -14 44 -14 24 -1 -9 6 -10 10
-3 10 6 0 19 -10 27 -22 9 -12 16 -18 16 -13 1 6 7 -4 14 -20 11 -27 17 -79
18 -172 0 -21 9 -27 30 -24 4 0 5 -6 2 -14 -4 -8 -10 -15 -14 -15 -4 0 -7 -12
-7 -27 0 -27 -38 -64 -58 -57 -6 3 -23 -12 -38 -33 -20 -28 -23 -39 -14 -46 8
-6 7 -7 -4 -4 -9 3 -33 -11 -58 -34 -23 -21 -46 -39 -51 -39 -6 0 8 17 31 37
40 36 60 66 73 111 12 38 -11 24 -27 -17 -9 -21 -35 -55 -58 -75 -34 -29 -51
-36 -85 -36 -34 0 -130 28 -100 30 5 0 -2 9 -15 21 -13 12 -23 25 -21 30 5 18
-28 21 -53 5 -32 -21 -32 -49 1 -79 38 -36 338 -192 414 -216 36 -11 108 -33
160 -50 52 -17 169 -46 260 -66 91 -19 179 -40 195 -46 17 -6 48 -15 70 -20
29 -5 15 -7 -50 -4 -49 2 -122 -1 -161 -7 -58 -9 -83 -8 -143 5 -95 22 -113
22 -86 1 18 -15 14 -16 -57 -9 -97 8 -99 3 -19 -94 32 -40 73 -99 92 -133 19
-33 51 -78 72 -99 20 -21 37 -47 37 -57 0 -11 19 -38 42 -60 45 -44 47 -65 4
-36 -15 9 -29 14 -32 11 -9 -9 15 -110 29 -119 8 -5 6 -8 -6 -8 -10 0 -16 -4
-12 -10 3 -5 12 -7 19 -4 8 3 17 1 21 -5 3 -6 -1 -11 -10 -11 -11 0 -15 -5
-12 -14 3 -8 9 -32 13 -53 4 -21 10 -40 13 -43 3 -3 15 -31 25 -62 11 -32 23
-58 27 -58 5 0 6 -6 3 -14 -3 -8 10 -32 30 -54 20 -22 36 -42 36 -46 0 -3 12
-25 26 -47 14 -23 23 -47 20 -55 -3 -8 1 -14 9 -14 14 0 48 -58 44 -76 -6 -33
3 -36 32 -8 18 16 29 22 25 14 -3 -8 -9 -23 -12 -32 -4 -10 -10 -18 -15 -18
-18 0 5 -32 39 -55 l36 -25 22 21 c21 19 22 20 18 3 -4 -14 10 -29 52 -59 31
-22 68 -50 83 -63 l26 -23 -35 17 c-19 9 -57 34 -84 55 -27 22 -53 39 -59 39
-16 0 100 -101 147 -129 95 -55 307 -160 386 -191 47 -18 108 -44 137 -57 28
-13 55 -23 60 -23 4 0 31 -10 60 -22 50 -20 58 -21 129 -9 75 12 163 45 176
64 3 6 0 23 -7 37 -14 28 -38 50 -146 135 -125 99 -177 154 -199 212 -11 29
-20 69 -20 88 0 42 45 189 72 233 49 80 169 197 268 260 30 19 73 47 95 62 49
32 112 59 230 101 50 17 108 38 130 46 60 22 211 59 295 73 52 9 132 11 260 7
182 -7 186 -7 245 -38 47 -24 56 -27 42 -11 -50 55 -247 131 -361 139 -79 6
-259 -14 -377 -43 -77 -18 -458 -194 -543 -250 -95 -64 -238 -204 -294 -290
-26 -39 -53 -79 -60 -90 -7 -10 -4 -1 7 21 43 91 178 249 285 334 68 54 179
117 266 151 107 42 250 113 250 125 0 8 -43 16 -131 24 -260 24 -615 108 -642
152 -6 9 -7 24 -4 34 6 15 18 17 86 14 46 -3 77 0 74 5 -4 5 0 5 8 0 8 -5 31
-10 52 -11 21 -2 120 -23 220 -48 270 -68 327 -75 601 -75 184 0 252 -4 300
-16 250 -64 419 -257 491 -559 42 -182 49 -197 119 -263 120 -112 306 -231
363 -232 50 -1 -3 59 -100 113 -37 21 -65 42 -62 47 3 6 0 7 -8 4 -17 -6 -129
111 -156 164 -26 52 -67 191 -86 295 -34 186 -91 287 -212 374 -87 62 -326
173 -468 218 -135 42 -239 90 -229 106 3 6 22 9 40 7 19 -2 33 -1 32 4 -2 4
-30 29 -63 55 -37 30 -63 60 -68 78 -11 36 -33 83 -92 195 -58 110 -58 128 -1
28 74 -129 256 -367 256 -335 0 4 -20 33 -44 64 -125 163 -259 434 -281 572
-7 41 -38 141 -66 207 -11 28 -10 39 10 90 52 135 101 200 177 234 41 19 80
24 240 34 243 14 263 26 182 106 -54 53 -182 150 -198 150 -8 0 -10 10 -6 33
6 32 3 36 -81 105 -157 129 -288 195 -448 225 -77 15 -257 26 -320 19z m155
-21 c0 -6 -4 -13 -10 -16 -5 -3 -10 1 -10 9 0 9 5 16 10 16 6 0 10 -4 10 -9z
m80 -16 c24 -25 13 -36 -12 -12 -7 7 -22 18 -33 25 -20 11 -20 11 1 12 11 0
31 -11 44 -25z m177 -22 c33 -18 42 -37 23 -48 -5 -3 -10 1 -10 9 0 9 -3 15
-7 15 -22 -4 -33 2 -27 14 4 6 4 9 -1 5 -4 -4 -16 -3 -26 3 -13 6 -19 6 -19
-1 0 -5 -4 -10 -10 -10 -5 0 -10 7 -10 15 0 9 -9 15 -22 15 -34 0 -68 11 -63
20 7 12 136 -15 172 -37z m79 -36 c4 -4 0 -7 -9 -7 -9 0 -18 4 -21 9 -7 10 20
9 30 -2z m-276 -23 c0 -8 -4 -14 -10 -14 -5 0 -10 9 -10 21 0 11 5 17 10 14 6
-3 10 -13 10 -21z m180 10 c0 -8 -5 -12 -11 -8 -6 3 -15 0 -20 -7 -4 -7 -11
-10 -15 -6 -9 9 15 37 32 37 8 0 14 -7 14 -16z m131 -1 c0 -5 2 -16 4 -25 2
-10 -1 -18 -6 -18 -5 0 -9 5 -9 11 0 5 -4 8 -9 5 -5 -4 -17 -3 -27 1 -16 6
-16 7 2 20 20 14 44 17 45 6z m-511 -18 c0 -8 -4 -15 -10 -15 -5 0 -10 7 -10
15 0 8 5 15 10 15 6 0 10 -7 10 -15z m260 11 c0 -3 -4 -8 -10 -11 -5 -3 -10
-1 -10 4 0 6 5 11 10 11 6 0 10 -2 10 -4z m-75 -27 c12 -19 -5 -23 -22 -6 -16
16 -16 17 -1 17 9 0 20 -5 23 -11z m225 -4 c0 -10 -9 -15 -27 -14 -24 2 -25 2
-5 6 12 2 22 9 22 14 0 5 2 9 5 9 3 0 5 -7 5 -15z m153 -49 c-14 -19 -19 -21
-21 -9 -2 9 2 19 10 24 24 16 29 9 11 -15z m82 -6 c10 -11 14 -20 9 -20 -5 0
-15 9 -22 20 -7 11 -11 20 -9 20 2 0 12 -9 22 -20z m-32 -15 c4 -8 2 -17 -3
-20 -6 -4 -10 -1 -10 6 0 7 -6 4 -14 -7 -8 -10 -18 -16 -22 -12 -7 8 23 48 36
48 5 0 10 -7 13 -15z m-96 -51 c2 -5 -6 -10 -17 -11 -20 -2 -26 8 -13 21 9 8
26 3 30 -10z m34 -7 c-1 -12 -15 -9 -19 4 -3 6 1 10 8 8 6 -3 11 -8 11 -12z
m-61 -26 c0 -12 -28 -22 -34 -12 -3 5 -3 11 1 15 9 9 33 7 33 -3z m90 -19 c0
-15 -2 -15 -10 -2 -13 20 -13 33 0 25 6 -3 10 -14 10 -23z m164 13 c3 -8 1
-15 -4 -15 -6 0 -10 7 -10 15 0 8 2 15 4 15 2 0 6 -7 10 -15z m-28 -40 c-21
-16 -32 -13 -21 4 3 6 14 11 23 11 15 -1 15 -2 -2 -15z m74 1 c0 -3 -4 -8 -10
-11 -5 -3 -10 -1 -10 4 0 6 5 11 10 11 6 0 10 -2 10 -4z m-540 -82 c0 -8 -4
-12 -10 -9 -5 3 -10 10 -10 16 0 5 5 9 10 9 6 0 10 -7 10 -16z m99 -117 c-16
-12 -79 -45 -79 -42 0 7 63 45 74 45 5 0 7 -1 5 -3z m-89 -50 c0 -2 -10 -12
-22 -23 l-23 -19 19 23 c18 21 26 27 26 19z m-1200 -17 c0 -5 -7 -10 -16 -10
-8 0 -12 5 -9 10 3 6 10 10 16 10 5 0 9 -4 9 -10z m145 -45 c-14 -13 -25 -29
-26 -35 -4 -42 -1 -68 9 -87 20 -37 13 -45 -15 -18 -15 14 -31 25 -35 25 -5 0
-8 8 -8 18 0 14 -2 15 -10 2 -7 -11 -10 -7 -10 18 0 28 3 32 28 33 15 0 21 3
15 6 -7 2 -13 9 -13 15 0 6 7 7 16 4 13 -5 15 -2 11 13 -3 15 1 21 17 24 42 8
45 7 21 -18z m51 0 c-20 -15 -36 -19 -36 -10 0 5 38 23 50 24 3 0 -4 -6 -14
-14z m54 -10 c0 -18 -5 -25 -20 -25 -22 0 -26 20 -8 38 19 19 28 14 28 -13z
m970 -35 c-11 -16 -27 -46 -35 -67 -9 -25 -14 -31 -14 -17 -1 19 53 114 64
114 4 0 -3 -13 -15 -30z m-400 -15 c-7 -9 -15 -13 -17 -11 -7 7 7 26 19 26 6
0 6 -6 -2 -15z m-560 -14 c0 -12 -20 -25 -27 -18 -7 7 6 27 18 27 5 0 9 -4 9
-9z m-473 -33 c-3 -8 -6 -5 -6 6 -1 11 2 17 5 13 3 -3 4 -12 1 -19z m93 12 c0
-5 -9 -14 -20 -20 -22 -12 -27 -1 -8 18 14 14 28 16 28 2z m426 -19 c-23 -26
-20 -38 13 -44 38 -8 141 -56 141 -66 0 -18 -15 -20 -38 -5 -13 8 -26 13 -29
10 -4 -3 -12 -1 -20 6 -8 6 -26 13 -41 14 -15 2 -28 8 -30 14 -2 5 -13 10 -23
10 -12 0 -17 4 -13 11 4 8 -3 9 -25 4 -20 -4 -31 -3 -31 4 0 6 7 11 15 11 8 0
29 13 47 29 34 30 61 32 34 2z m791 -38 c-3 -10 -5 -2 -5 17 0 19 2 27 5 18 2
-10 2 -26 0 -35z m-1602 -1 c-3 -3 -11 0 -18 7 -9 10 -8 11 6 5 10 -3 15 -9
12 -12z m55 -17 c14 -8 21 -14 15 -14 -5 0 -21 6 -35 14 -14 8 -20 14 -15 14
6 0 21 -6 35 -14z m620 5 c0 -5 -4 -10 -10 -10 -5 0 -10 5 -10 10 0 6 5 10 10
10 6 0 10 -4 10 -10z m37 -16 c-3 -3 -12 -4 -19 -1 -8 3 -5 6 6 6 11 1 17 -2
13 -5z m-582 -14 c3 -5 15 -10 26 -10 10 0 19 -4 19 -10 0 -5 -2 -10 -4 -10
-9 0 -76 31 -76 35 0 9 29 5 35 -5z m1470 -10 c-9 -14 32 -119 61 -159 l27
-36 -25 23 c-30 27 -63 97 -74 156 -5 28 -4 37 5 32 6 -4 9 -11 6 -16z m105
-79 c-1 -17 -30 36 -30 53 1 16 5 12 15 -13 8 -18 15 -36 15 -40z m-700 50 c0
-12 -28 -22 -34 -12 -3 5 -3 11 1 15 9 9 33 7 33 -3z m-745 -19 c-3 -3 -11 0
-18 7 -9 10 -8 11 6 5 10 -3 15 -9 12 -12z m791 -11 c0 -15 -3 -17 -13 -9 -7
6 -13 14 -13 19 0 5 6 9 13 9 7 0 13 -9 13 -19z m-797 -15 c19 -14 28 -27 22
-31 -6 -3 -11 -2 -11 3 0 5 -11 7 -24 5 -13 -3 -27 0 -30 6 -4 6 -3 11 3 11 6
0 8 7 5 15 -8 20 -3 19 35 -9z m-53 5 c-3 -5 -16 -11 -28 -14 -22 -6 -22 -5
-4 8 22 17 40 20 32 6z m-159 -7 c-3 -3 -12 -4 -19 -1 -8 3 -5 6 6 6 11 1 17
-2 13 -5z m1048 -4 c3 -5 1 -10 -4 -10 -6 0 -11 5 -11 10 0 6 2 10 4 10 3 0 8
-4 11 -10z m-990 -18 c-3 -3 -11 0 -18 7 -9 10 -8 11 6 5 10 -3 15 -9 12 -12z
m285 8 c8 -5 11 -10 5 -10 -5 0 -17 5 -25 10 -8 5 -10 10 -5 10 6 0 17 -5 25
-10z m-1033 -26 c-9 -9 -28 6 -21 18 4 6 10 6 17 -1 6 -6 8 -13 4 -17z m1773
16 c0 -5 -5 -10 -11 -10 -5 0 -7 5 -4 10 3 6 8 10 11 10 2 0 4 -4 4 -10z m621
-16 c21 -24 22 -26 3 -16 -25 13 -50 42 -37 42 5 0 20 -12 34 -26z m-1504 -20
c-3 -3 -12 -4 -19 -1 -8 3 -5 6 6 6 11 1 17 -2 13 -5z m349 -31 c-11 -11 -19
6 -11 24 8 17 8 17 12 0 3 -10 2 -21 -1 -24z m-231 -11 c-3 -3 -11 0 -18 7 -9
10 -8 11 6 5 10 -3 15 -9 12 -12z m1210 -52 c-22 -22 -44 -40 -49 -40 -6 0 10
20 34 45 24 24 46 42 49 40 2 -3 -13 -23 -34 -45z m-1120 8 c54 -26 3 -15 -56
12 -33 15 -37 18 -14 13 17 -3 48 -15 70 -25z m178 11 c-6 -6 -9 -18 -6 -25 3
-8 -1 -14 -11 -14 -9 0 -16 8 -16 18 0 23 8 32 29 32 11 0 12 -3 4 -11z m1108
-16 c13 -16 12 -17 -3 -4 -17 13 -22 21 -14 21 2 0 10 -8 17 -17z m-1171 -33
c0 -5 -4 -10 -10 -10 -5 0 -10 5 -10 10 0 6 5 10 10 10 6 0 10 -4 10 -10z
m1089 -54 c-11 -20 -25 -36 -30 -36 -4 0 4 20 19 44 32 52 43 45 11 -8z m-584
24 c3 -6 -1 -7 -9 -4 -18 7 -21 14 -7 14 6 0 13 -4 16 -10z m65 -30 c19 -11
31 -19 25 -19 -5 0 -26 8 -45 19 -19 11 -30 19 -25 19 6 0 26 -8 45 -19z
m-350 -5 c16 -9 19 -14 9 -15 -8 0 -24 7 -35 15 -24 18 -7 19 26 0z m-205 -13
c-3 -3 -11 0 -18 7 -9 10 -8 11 6 5 10 -3 15 -9 12 -12z m110 -28 c44 -14 87
-30 95 -36 12 -8 12 -9 -2 -4 -10 3 -56 17 -103 31 -47 15 -85 28 -85 31 0 8
15 4 95 -22z m671 -72 c-5 -4 -186 86 -186 93 0 3 43 -16 95 -42 52 -26 93
-49 91 -51z m-446 53 c14 -8 21 -14 15 -14 -5 0 -21 6 -35 14 -14 8 -20 14
-15 14 6 0 21 -6 35 -14z m270 -10 c25 -13 37 -24 28 -25 -9 0 -20 5 -23 10
-3 6 -17 10 -31 10 -14 0 -23 4 -20 9 4 5 0 12 -6 14 -7 3 -8 6 -3 6 6 0 30
-11 55 -24z m-1450 1 c0 -11 -19 -15 -25 -6 -3 5 1 10 9 10 9 0 16 -2 16 -4z
m90 -12 c0 -8 -4 -12 -10 -9 -5 3 -10 10 -10 16 0 5 5 9 10 9 6 0 10 -7 10
-16z m1223 -31 c15 -7 27 -15 27 -18 0 -5 -92 34 -100 42 -8 8 41 -7 73 -24z
m212 7 c3 -6 -1 -7 -9 -4 -18 7 -21 14 -7 14 6 0 13 -4 16 -10z m-1279 -34 c3
-8 17 -17 30 -20 28 -7 23 -26 -6 -26 -24 0 -70 21 -70 32 0 4 7 8 16 8 8 0
12 5 9 10 -3 6 -1 10 5 10 6 0 13 -6 16 -14z m1464 -6 c19 -11 31 -19 25 -19
-5 0 -26 8 -45 19 -19 11 -30 19 -25 19 6 0 26 -8 45 -19z m95 -41 c25 -11 44
-23 42 -26 -3 -2 -27 7 -54 21 -59 31 -53 34 12 5z m-1815 1 c0 -5 -4 -10 -10
-10 -5 0 -10 5 -10 10 0 6 5 10 10 10 6 0 10 -4 10 -10z m347 -6 c-3 -3 -12
-4 -19 -1 -8 3 -5 6 6 6 11 1 17 -2 13 -5z m1631 -135 c35 -16 67 -27 72 -24
5 3 12 -1 17 -9 4 -8 35 -30 68 -48 85 -49 175 -108 175 -115 0 -3 -24 -3 -52
0 -52 5 -235 75 -513 194 -141 61 -141 61 -133 68 2 3 90 -29 194 -71 220 -88
231 -92 182 -64 -21 11 -38 22 -38 23 0 2 17 2 38 0 30 -3 10 10 -110 72 -82
41 -148 77 -148 79 0 4 153 -60 248 -105z m107 -2 c6 -5 -26 9 -70 33 -44 23
-84 47 -90 53 -5 5 26 -9 70 -33 44 -23 85 -47 90 -53z m-1145 73 c8 -5 11
-10 5 -10 -5 0 -17 5 -25 10 -8 5 -10 10 -5 10 6 0 17 -5 25 -10z m1308 -151
c93 -54 69 -49 -31 7 -45 25 -71 42 -59 39 13 -4 54 -24 90 -46z m-875 1 c54
-17 96 -34 94 -37 -5 -5 -208 64 -217 74 -3 3 2 4 10 1 8 -3 59 -20 113 -38z
m-1223 6 c0 -3 -4 -8 -10 -11 -5 -3 -10 -1 -10 4 0 6 5 11 10 11 6 0 10 -2 10
-4z m1371 -64 c-7 -2 -18 1 -23 6 -8 8 -4 9 13 5 13 -4 18 -8 10 -11z m179
-31 c93 -21 259 -76 274 -91 5 -5 -40 8 -100 29 -60 21 -140 44 -179 51 -38 7
-86 16 -105 21 -34 7 -34 7 -5 8 17 0 68 -8 115 -18z m353 -108 c-7 -2 -21 -2
-30 0 -10 3 -4 5 12 5 17 0 24 -2 18 -5z m60 -10 c-7 -2 -19 -2 -25 0 -7 3 -2
5 12 5 14 0 19 -2 13 -5z m54 -9 c-3 -3 -12 -4 -19 -1 -8 3 -5 6 6 6 11 1 17
-2 13 -5z m-1420 -40 c-3 -3 -12 -4 -19 -1 -8 3 -5 6 6 6 11 1 17 -2 13 -5z
m292 -43 c130 -22 263 -43 296 -47 33 -4 55 -9 48 -11 -22 -8 -513 65 -578 86
-56 17 -3 11 234 -28z m-736 10 c18 -1 27 -6 27 -17 0 -11 -5 -14 -17 -9 -10
3 -37 10 -61 15 -55 10 -63 17 -15 14 21 -1 50 -2 66 -3z m-165 -50 c7 -4 -3
-7 -23 -7 -23 0 -35 5 -35 14 0 13 26 10 58 -7z m1315 -28 c-7 -2 -21 -2 -30
0 -10 3 -4 5 12 5 17 0 24 -2 18 -5z m50 -10 c-7 -2 -19 -2 -25 0 -7 3 -2 5
12 5 14 0 19 -2 13 -5z m987 -27 c41 -8 86 -20 100 -26 21 -9 15 -10 -32 -6
-32 2 -63 8 -70 13 -7 4 -33 13 -58 19 -66 17 -27 16 60 0z m290 -36 c8 -5 11
-10 5 -10 -5 0 -17 5 -25 10 -8 5 -10 10 -5 10 6 0 17 -5 25 -10z m-705 -207
c-1 -42 -23 -55 -45 -28 -9 11 -9 15 -1 15 7 0 10 4 6 9 -4 7 30 41 41 41 0 0
0 -17 -1 -37z m-1615 17 c0 -5 -4 -10 -10 -10 -5 0 -10 5 -10 10 0 6 5 10 10
10 6 0 10 -4 10 -10z m-60 -56 c0 -25 4 -43 8 -40 4 2 14 1 22 -5 14 -8 2 -13
-17 -6 -3 1 -12 -11 -18 -26 -10 -24 -11 -18 -11 48 1 41 4 75 9 75 4 0 7 -21
7 -46z m1472 0 c-5 -44 -36 -59 -47 -23 -4 13 0 27 11 40 24 26 40 18 36 -17z
m-1505 -76 c-3 -8 -6 -5 -6 6 -1 11 2 17 5 13 3 -3 4 -12 1 -19z m1331 -12 c5
-26 -27 -59 -45 -45 -17 15 -17 34 3 54 19 19 38 15 42 -9z m-938 -26 c-17
-22 -34 -40 -37 -40 -2 0 10 18 27 40 17 22 34 40 37 40 2 0 -10 -18 -27 -40z
m-130 10 c0 -5 -4 -10 -10 -10 -5 0 -10 5 -10 10 0 6 5 10 10 10 6 0 10 -4 10
-10z m2654 -76 c3 -8 2 -12 -4 -9 -6 3 -10 10 -10 16 0 14 7 11 14 -7z m-1768
-26 c4 -6 2 -14 -4 -16 -7 -2 -10 -7 -8 -11 9 -14 -12 -34 -29 -28 -12 5 -14
13 -9 29 10 35 36 48 50 26z m-145 -212 c-6 -7 -10 -22 -9 -32 2 -11 -1 -19
-7 -19 -5 0 -11 6 -12 14 -2 20 15 51 29 51 7 0 7 -4 -1 -14z m14 -113 l-15
-28 2 30 c1 17 7 36 13 44 18 25 18 -14 0 -46z m-835 -37 c0 -26 -6 -18 -14
19 -5 22 -4 26 4 15 5 -8 10 -24 10 -34z m217 -48 c-3 -7 -5 -2 -5 12 0 14 2
19 5 13 2 -7 2 -19 0 -25z m488 -27 c-10 -9 -24 21 -17 37 4 12 7 10 14 -8 5
-13 6 -25 3 -29z m98 -81 c-11 -97 27 -155 198 -297 86 -71 113 -113 90 -136
-8 -8 -11 -4 -11 14 -1 29 -18 51 -90 108 -137 110 -210 202 -210 263 0 25 19
98 25 98 2 0 1 -22 -2 -50z m-147 -29 c-8 -12 -126 -13 -126 -1 0 6 30 10 66
10 36 0 63 -4 60 -9z m89 -1 c-3 -5 -14 -10 -23 -9 -14 0 -13 2 3 9 27 11 27
11 20 0z m-54 -54 c8 4 10 3 5 -4 -11 -18 -24 -14 -36 11 -10 21 -10 21 4 3 8
-10 20 -15 27 -10z m-607 -2 c5 -14 4 -15 -9 -4 -17 14 -19 20 -6 20 5 0 12
-7 15 -16z m632 -109 c-3 -8 2 -19 12 -24 15 -9 15 -10 1 -11 -18 0 -33 26
-23 41 9 15 17 10 10 -6z m135 -141 c14 -17 12 -20 -23 -29 -21 -5 -27 -3 -33
14 -3 11 -4 25 -1 30 8 12 42 3 57 -15z m-378 -1 c18 -9 36 -16 40 -15 5 1 6
-2 3 -7 -3 -5 4 -11 16 -14 12 -4 19 -9 16 -12 -6 -6 -128 51 -128 60 0 10 21
5 53 -12z m540 -32 c-2 -6 3 -11 10 -11 19 0 -15 -20 -35 -20 -17 0 -25 29
-12 42 9 10 39 1 37 -11z m-383 -42 c32 -18 32 -19 8 -14 -36 7 -78 23 -78 30
0 11 37 3 70 -16z m303 -86 c-7 -2 -19 -2 -25 0 -7 3 -2 5 12 5 14 0 19 -2 13
-5z"/>
<path d="M2740 2176 c0 -2 8 -10 18 -17 15 -13 16 -12 3 4 -13 16 -21 21 -21
13z"/>
<path d="M2783 2143 c4 -6 1 -13 -5 -16 -7 -2 0 -4 15 -4 15 0 27 0 25 1 -2 1
-12 8 -22 16 -11 8 -17 10 -13 3z"/>
<path d="M2379 1362 c9 -7 10 -11 2 -15 -7 -4 -8 -5 0 -3 15 2 13 20 -3 24
-10 3 -10 2 1 -6z"/>
<path d="M2180 1220 c0 -5 5 -10 10 -10 6 0 10 5 10 10 0 6 -4 10 -10 10 -5 0
-10 -4 -10 -10z"/>
<path d="M467 2636 c-3 -8 -3 -25 0 -38 8 -27 64 -83 72 -70 3 5 14 11 24 15
12 4 17 17 17 43 0 35 -1 36 -28 31 -21 -4 -32 -1 -42 14 -17 22 -36 25 -43 5z"/>
<path d="M602 2585 c0 -16 2 -22 5 -12 2 9 2 23 0 30 -3 6 -5 -1 -5 -18z"/>
<path d="M340 2336 c0 -2 8 -10 18 -17 15 -13 16 -12 3 4 -13 16 -21 21 -21
13z"/>
<path d="M936 1525 c4 -8 8 -15 10 -15 2 0 4 7 4 15 0 8 -4 15 -10 15 -5 0 -7
-7 -4 -15z"/>
<path d="M4010 1385 c29 -59 57 -165 79 -298 19 -113 65 -208 138 -285 20 -21
24 -22 18 -7 -28 71 -34 95 -35 140 -1 83 -36 260 -61 311 -13 26 -57 82 -96
123 l-73 76 30 -60z"/>
<path d="M1099 961 c7 -11 16 -21 22 -21 6 0 7 -4 4 -10 -3 -5 -1 -10 4 -10
20 0 11 25 -15 44 -26 18 -26 18 -15 -3z"/>
<path d="M1140 905 c0 -11 49 -95 56 -95 3 0 -7 21 -22 48 -33 56 -34 58 -34
47z"/>
<path d="M4500 558 c0 -9 -12 -21 -27 -26 -28 -10 -27 -10 10 -11 38 -1 46 10
27 39 -8 13 -10 13 -10 -2z"/>
</g>
</svg>
